<mxfile host="app.diagrams.net" modified="2021-05-17T03:34:05.476Z" agent="5.0 (Windows NT 10.0; Win64; x64) AppleWebKit/537.36 (KHTML, like Gecko) Chrome/90.0.4430.212 Safari/537.36" etag="KdZEk8W8coa5oEAB15Gs" version="14.6.13" type="github">
  <diagram id="9hDP-JxcBApaVpeGbo42" name="Page-1">
    <mxGraphModel dx="868" dy="450" grid="1" gridSize="10" guides="1" tooltips="1" connect="1" arrows="1" fold="1" page="1" pageScale="1" pageWidth="827" pageHeight="1169" math="0" shadow="0">
      <root>
        <mxCell id="0" />
        <mxCell id="1" parent="0" />
        <mxCell id="lwf3BBHvjB3YT5emJyM9-11" style="edgeStyle=orthogonalEdgeStyle;rounded=0;orthogonalLoop=1;jettySize=auto;html=1;" edge="1" parent="1" source="lwf3BBHvjB3YT5emJyM9-3" target="lwf3BBHvjB3YT5emJyM9-9">
          <mxGeometry relative="1" as="geometry" />
        </mxCell>
        <mxCell id="lwf3BBHvjB3YT5emJyM9-3" value="管理员" style="shape=umlActor;verticalLabelPosition=bottom;verticalAlign=top;html=1;outlineConnect=0;" vertex="1" parent="1">
          <mxGeometry x="399" y="260" width="30" height="60" as="geometry" />
        </mxCell>
        <mxCell id="lwf3BBHvjB3YT5emJyM9-4" value="优惠券系统" style="shape=umlFrame;whiteSpace=wrap;html=1;width=120;height=30;boundedLbl=1;verticalAlign=middle;align=left;spacingLeft=5;" vertex="1" parent="1">
          <mxGeometry x="190" y="390" width="580" height="340" as="geometry" />
        </mxCell>
        <mxCell id="lwf3BBHvjB3YT5emJyM9-6" value="学员" style="shape=umlActor;verticalLabelPosition=bottom;verticalAlign=top;html=1;" vertex="1" parent="1">
          <mxGeometry x="110" y="525" width="30" height="60" as="geometry" />
        </mxCell>
        <mxCell id="lwf3BBHvjB3YT5emJyM9-9" value="创建优惠券" style="ellipse;whiteSpace=wrap;html=1;" vertex="1" parent="1">
          <mxGeometry x="354" y="440" width="120" height="50" as="geometry" />
        </mxCell>
        <mxCell id="lwf3BBHvjB3YT5emJyM9-10" value="后台管理系统" style="rounded=0;whiteSpace=wrap;html=1;" vertex="1" parent="1">
          <mxGeometry x="630" y="420" width="100" height="40" as="geometry" />
        </mxCell>
        <mxCell id="lwf3BBHvjB3YT5emJyM9-12" value="平台优惠券服务" style="rounded=0;whiteSpace=wrap;html=1;" vertex="1" parent="1">
          <mxGeometry x="630" y="500" width="100" height="40" as="geometry" />
        </mxCell>
        <mxCell id="lwf3BBHvjB3YT5emJyM9-13" value="青少app" style="rounded=0;whiteSpace=wrap;html=1;" vertex="1" parent="1">
          <mxGeometry x="630" y="585" width="100" height="35" as="geometry" />
        </mxCell>
      </root>
    </mxGraphModel>
  </diagram>
</mxfile>
